<svg xmlns="http://www.w3.org/2000/svg" xmlns:xlink="http://www.w3.org/1999/xlink" width="500" zoomAndPan="magnify" viewBox="0 0 375 374.999991" height="500" preserveAspectRatio="xMidYMid meet" version="1.0"><defs><g/><clipPath id="74a7c228f1"><rect x="0" width="324" y="0" height="375"/></clipPath></defs><rect x="-37.5" width="450" fill="#ffffff" y="-37.499999" height="449.999989" fill-opacity="1"/><rect x="-37.5" width="450" fill="#fc8b37" y="-37.499999" height="449.999989" fill-opacity="1"/><g transform="matrix(1, 0, 0, 1, 12, 0)"><g clip-path="url(#74a7c228f1)"><g fill="#000932" fill-opacity="1"><g transform="translate(0.96397, 335.850295)"><g><path d="M 157.671875 6.015625 C 131.585938 6.015625 108.015625 -0.601562 86.953125 -13.84375 C 65.890625 -27.082031 49.238281 -45.035156 37 -67.703125 C 24.769531 -90.367188 18.65625 -115.742188 18.65625 -143.828125 C 18.65625 -172.316406 24.769531 -197.894531 37 -220.5625 C 49.238281 -243.226562 65.890625 -261.28125 86.953125 -274.71875 C 108.015625 -288.15625 131.585938 -294.875 157.671875 -294.875 C 176.128906 -294.875 192.878906 -291.460938 207.921875 -284.640625 C 222.960938 -277.828125 235.703125 -268.601562 246.140625 -256.96875 L 246.140625 -288.859375 L 312.328125 -288.859375 L 312.328125 0 L 246.140625 0 L 246.140625 -31.296875 C 235.703125 -19.660156 222.960938 -10.53125 207.921875 -3.90625 C 192.878906 2.707031 176.128906 6.015625 157.671875 6.015625 Z M 168.5 -56.5625 C 192.976562 -56.5625 212.738281 -64.785156 227.78125 -81.234375 C 242.820312 -97.691406 250.34375 -118.757812 250.34375 -144.4375 C 250.34375 -170.507812 242.820312 -191.671875 227.78125 -207.921875 C 212.738281 -224.171875 192.976562 -232.296875 168.5 -232.296875 C 144.425781 -232.296875 124.765625 -224.171875 109.515625 -207.921875 C 94.273438 -191.671875 86.65625 -170.507812 86.65625 -144.4375 C 86.65625 -118.757812 94.273438 -97.691406 109.515625 -81.234375 C 124.765625 -64.785156 144.425781 -56.5625 168.5 -56.5625 Z M 168.5 -56.5625 "/></g></g></g></g></g></svg>