<svg id="agora-logo_horizontal--dark" xmlns="http://www.w3.org/2000/svg" xmlns:xlink="http://www.w3.org/1999/xlink"  zoomAndPan="magnify" viewBox="0 0 255 103.5" class="{{ extraClass }}" preserveAspectRatio="xMidYMid meet" version="1.0"><defs><g/><clipPath id="1d9c99f679"><path d="M 0.613281 14.480469 L 86.449219 14.480469 L 86.449219 100.316406 L 0.613281 100.316406 Z M 0.613281 14.480469 " clip-rule="nonzero"/></clipPath></defs><g fill="#000932" fill-opacity="1"><g transform="translate(99.371953, 71.649877)"><g><path d="M 14.59375 0.5625 C 12.1875 0.5625 10.003906 -0.0507812 8.046875 -1.28125 C 6.097656 -2.507812 4.554688 -4.171875 3.421875 -6.265625 C 2.296875 -8.367188 1.734375 -10.71875 1.734375 -13.3125 C 1.734375 -15.945312 2.296875 -18.3125 3.421875 -20.40625 C 4.554688 -22.507812 6.097656 -24.179688 8.046875 -25.421875 C 10.003906 -26.671875 12.1875 -27.296875 14.59375 -27.296875 C 16.300781 -27.296875 17.851562 -26.976562 19.25 -26.34375 C 20.644531 -25.71875 21.820312 -24.867188 22.78125 -23.796875 L 22.78125 -26.75 L 28.921875 -26.75 L 28.921875 0 L 22.78125 0 L 22.78125 -2.890625 C 21.820312 -1.816406 20.644531 -0.972656 19.25 -0.359375 C 17.851562 0.253906 16.300781 0.5625 14.59375 0.5625 Z M 15.59375 -5.234375 C 17.863281 -5.234375 19.691406 -5.992188 21.078125 -7.515625 C 22.472656 -9.046875 23.171875 -11 23.171875 -13.375 C 23.171875 -15.789062 22.472656 -17.75 21.078125 -19.25 C 19.691406 -20.75 17.863281 -21.5 15.59375 -21.5 C 13.375 -21.5 11.554688 -20.75 10.140625 -19.25 C 8.734375 -17.75 8.03125 -15.789062 8.03125 -13.375 C 8.03125 -11 8.734375 -9.046875 10.140625 -7.515625 C 11.554688 -5.992188 13.375 -5.234375 15.59375 -5.234375 Z M 15.59375 -5.234375 "/></g></g></g><g fill="#000932" fill-opacity="1"><g transform="translate(127.790136, 71.649877)"><g><path d="M 14.265625 -0.5625 C 11.890625 -0.5625 9.742188 -1.144531 7.828125 -2.3125 C 5.910156 -3.476562 4.40625 -5.082031 3.3125 -7.125 C 2.21875 -9.175781 1.671875 -11.460938 1.671875 -13.984375 C 1.671875 -16.515625 2.21875 -18.78125 3.3125 -20.78125 C 4.40625 -22.789062 5.910156 -24.378906 7.828125 -25.546875 C 9.742188 -26.710938 11.890625 -27.296875 14.265625 -27.296875 C 16.003906 -27.296875 17.582031 -27 19 -26.40625 C 20.414062 -25.8125 21.585938 -24.976562 22.515625 -23.90625 L 22.515625 -26.75 L 28.640625 -26.75 L 28.640625 -1.109375 C 28.640625 1.453125 28.046875 3.6875 26.859375 5.59375 C 25.671875 7.507812 24.015625 9.003906 21.890625 10.078125 C 19.773438 11.160156 17.328125 11.703125 14.546875 11.703125 C 11.722656 11.703125 9.25 11.191406 7.125 10.171875 C 5.007812 9.148438 3.300781 7.707031 2 5.84375 L 6.015625 1.84375 C 7.097656 3.175781 8.320312 4.175781 9.6875 4.84375 C 11.0625 5.507812 12.71875 5.84375 14.65625 5.84375 C 17.070312 5.84375 18.984375 5.222656 20.390625 3.984375 C 21.804688 2.742188 22.515625 1.046875 22.515625 -1.109375 L 22.515625 -4.015625 C 21.585938 -2.929688 20.414062 -2.082031 19 -1.46875 C 17.582031 -0.863281 16.003906 -0.5625 14.265625 -0.5625 Z M 15.484375 -6.359375 C 17.710938 -6.359375 19.503906 -7.050781 20.859375 -8.4375 C 22.222656 -9.832031 22.90625 -11.660156 22.90625 -13.921875 C 22.90625 -16.234375 22.222656 -18.070312 20.859375 -19.4375 C 19.503906 -20.8125 17.710938 -21.5 15.484375 -21.5 C 13.253906 -21.5 11.441406 -20.800781 10.046875 -19.40625 C 8.660156 -18.019531 7.96875 -16.191406 7.96875 -13.921875 C 7.96875 -11.660156 8.660156 -9.832031 10.046875 -8.4375 C 11.441406 -7.050781 13.253906 -6.359375 15.484375 -6.359375 Z M 15.484375 -6.359375 "/></g></g></g><g fill="#000932" fill-opacity="1"><g transform="translate(155.929696, 71.649877)"><g><path d="M 15.65625 0.5625 C 13.050781 0.5625 10.691406 -0.0546875 8.578125 -1.296875 C 6.460938 -2.546875 4.78125 -4.226562 3.53125 -6.34375 C 2.289062 -8.46875 1.671875 -10.828125 1.671875 -13.421875 C 1.671875 -16.023438 2.289062 -18.363281 3.53125 -20.4375 C 4.78125 -22.519531 6.460938 -24.179688 8.578125 -25.421875 C 10.691406 -26.671875 13.050781 -27.296875 15.65625 -27.296875 C 18.289062 -27.296875 20.664062 -26.679688 22.78125 -25.453125 C 24.90625 -24.234375 26.585938 -22.570312 27.828125 -20.46875 C 29.078125 -18.375 29.703125 -16.023438 29.703125 -13.421875 C 29.703125 -10.828125 29.078125 -8.46875 27.828125 -6.34375 C 26.585938 -4.226562 24.90625 -2.546875 22.78125 -1.296875 C 20.664062 -0.0546875 18.289062 0.5625 15.65625 0.5625 Z M 15.65625 -5.34375 C 17.957031 -5.34375 19.820312 -6.09375 21.25 -7.59375 C 22.6875 -9.101562 23.40625 -11.046875 23.40625 -13.421875 C 23.40625 -15.765625 22.679688 -17.675781 21.234375 -19.15625 C 19.785156 -20.644531 17.925781 -21.390625 15.65625 -21.390625 C 13.394531 -21.390625 11.546875 -20.632812 10.109375 -19.125 C 8.679688 -17.625 7.96875 -15.722656 7.96875 -13.421875 C 7.96875 -11.046875 8.679688 -9.101562 10.109375 -7.59375 C 11.546875 -6.09375 13.394531 -5.34375 15.65625 -5.34375 Z M 15.65625 -5.34375 "/></g></g></g><g fill="#000932" fill-opacity="1"><g transform="translate(183.40058, 71.649877)"><g><path d="M 3.40625 0 L 3.40625 -26.75 L 9.53125 -26.75 L 9.53125 -23.953125 C 10.269531 -24.992188 11.222656 -25.8125 12.390625 -26.40625 C 13.566406 -27 14.9375 -27.296875 16.5 -27.296875 C 19.132812 -27.296875 21.34375 -26.273438 23.125 -24.234375 L 19.109375 -20.109375 C 18.140625 -21.078125 16.914062 -21.5625 15.4375 -21.5625 C 13.726562 -21.5625 12.316406 -21.019531 11.203125 -19.9375 C 10.085938 -18.863281 9.53125 -17.175781 9.53125 -14.875 L 9.53125 0 Z M 3.40625 0 "/></g></g></g><g fill="#000932" fill-opacity="1"><g transform="translate(203.181701, 71.649877)"><g><path d="M 14.59375 0.5625 C 12.1875 0.5625 10.003906 -0.0507812 8.046875 -1.28125 C 6.097656 -2.507812 4.554688 -4.171875 3.421875 -6.265625 C 2.296875 -8.367188 1.734375 -10.71875 1.734375 -13.3125 C 1.734375 -15.945312 2.296875 -18.3125 3.421875 -20.40625 C 4.554688 -22.507812 6.097656 -24.179688 8.046875 -25.421875 C 10.003906 -26.671875 12.1875 -27.296875 14.59375 -27.296875 C 16.300781 -27.296875 17.851562 -26.976562 19.25 -26.34375 C 20.644531 -25.71875 21.820312 -24.867188 22.78125 -23.796875 L 22.78125 -26.75 L 28.921875 -26.75 L 28.921875 0 L 22.78125 0 L 22.78125 -2.890625 C 21.820312 -1.816406 20.644531 -0.972656 19.25 -0.359375 C 17.851562 0.253906 16.300781 0.5625 14.59375 0.5625 Z M 15.59375 -5.234375 C 17.863281 -5.234375 19.691406 -5.992188 21.078125 -7.515625 C 22.472656 -9.046875 23.171875 -11 23.171875 -13.375 C 23.171875 -15.789062 22.472656 -17.75 21.078125 -19.25 C 19.691406 -20.75 17.863281 -21.5 15.59375 -21.5 C 13.375 -21.5 11.554688 -20.75 10.140625 -19.25 C 8.734375 -17.75 8.03125 -15.789062 8.03125 -13.375 C 8.03125 -11 8.734375 -9.046875 10.140625 -7.515625 C 11.554688 -5.992188 13.375 -5.234375 15.59375 -5.234375 Z M 15.59375 -5.234375 "/></g></g></g><g clip-path="url(#1d9c99f679)"><path fill="#fc8b37" d="M 26.808594 89.613281 C 26.226562 89.324219 25.832031 88.707031 25.832031 88.019531 C 25.832031 83.175781 27.816406 78.777344 30.984375 75.59375 C 31.464844 75.113281 32.027344 74.617188 32.578125 74.171875 C 33.332031 75.113281 33.945312 76.15625 34.390625 77.253906 C 34.066406 77.507812 33.773438 77.800781 33.484375 78.089844 C 31.140625 80.4375 29.613281 83.570312 29.390625 87.046875 C 30.882812 87.882812 32.027344 88.414062 33.125 88.570312 C 34.167969 88.707031 35.332031 88.5 36.890625 87.953125 L 36.890625 82.011719 C 36.890625 78.144531 35.300781 74.617188 32.730469 72.082031 C 30.195312 69.515625 26.6875 67.957031 22.835938 67.957031 C 19.683594 67.957031 16.792969 69 14.464844 70.710938 C 12.253906 72.375 10.542969 74.632812 9.601562 77.269531 C 11.296875 80.09375 13.332031 82.730469 15.644531 85.058594 C 22.75 92.164062 32.59375 96.546875 43.429688 96.546875 C 46.035156 96.546875 48.585938 96.289062 51.117188 95.757812 C 53.292969 95.332031 55.398438 94.714844 57.488281 93.945312 L 57.488281 88.003906 C 57.488281 84.136719 55.894531 80.640625 53.328125 78.074219 C 50.792969 75.539062 47.285156 73.949219 43.429688 73.949219 C 42.351562 73.949219 41.324219 74.085938 40.316406 74.308594 C 39.835938 73.179688 39.238281 72.097656 38.535156 71.125 C 40.09375 70.660156 41.71875 70.40625 43.429688 70.40625 C 46.152344 70.40625 48.753906 71.054688 51.066406 72.152344 C 52.523438 70.011719 54.441406 68.230469 56.648438 66.894531 C 59.285156 65.300781 62.367188 64.394531 65.636719 64.394531 C 69.144531 64.394531 72.449219 65.4375 75.207031 67.253906 C 77.019531 68.453125 78.648438 69.976562 79.914062 71.773438 C 81.695312 67.238281 82.671875 62.289062 82.671875 57.253906 C 82.671875 46.417969 78.289062 36.609375 71.183594 29.503906 C 64.078125 22.398438 54.269531 18.015625 43.429688 18.015625 C 32.59375 18.015625 22.75 22.414062 15.644531 29.519531 C 8.539062 36.625 4.15625 46.4375 4.15625 57.273438 C 4.15625 62.992188 5.390625 68.402344 7.5625 73.316406 C 8.761719 71.210938 10.421875 69.359375 12.375 67.886719 C 15.335938 65.714844 18.933594 64.414062 22.851562 64.414062 C 27.699219 64.414062 32.0625 66.398438 35.246094 69.566406 C 38.433594 72.734375 40.402344 77.167969 40.402344 81.996094 L 40.402344 89.132812 C 40.402344 89.886719 39.921875 90.554688 39.238281 90.792969 C 36.546875 91.890625 34.632812 92.285156 32.679688 92.027344 C 30.796875 91.804688 29.117188 90.964844 26.808594 89.613281 Z M 22.851562 45.238281 C 25.09375 45.238281 27.097656 46.144531 28.570312 47.582031 C 30.027344 49.039062 30.933594 51.09375 30.933594 53.300781 C 30.933594 55.542969 30.027344 57.546875 28.570312 59.019531 C 27.117188 60.472656 25.09375 61.382812 22.851562 61.382812 C 20.644531 61.382812 18.605469 60.472656 17.132812 59.019531 C 15.679688 57.5625 14.789062 55.542969 14.789062 53.300781 C 14.789062 51.09375 15.660156 49.054688 17.132812 47.582031 C 18.589844 46.144531 20.644531 45.238281 22.851562 45.238281 Z M 26.070312 50.066406 C 25.265625 49.261719 24.121094 48.765625 22.851562 48.765625 C 21.621094 48.765625 20.488281 49.242188 19.632812 50.066406 C 18.828125 50.902344 18.296875 52.050781 18.296875 53.285156 C 18.296875 54.550781 18.8125 55.679688 19.632812 56.503906 C 20.472656 57.308594 21.621094 57.839844 22.851562 57.839844 C 24.121094 57.839844 25.25 57.324219 26.070312 56.503906 C 26.894531 55.679688 27.40625 54.550781 27.40625 53.285156 C 27.390625 52.050781 26.875 50.902344 26.070312 50.066406 Z M 63.976562 45.238281 C 66.21875 45.238281 68.222656 46.144531 69.695312 47.582031 C 71.148438 49.039062 72.039062 51.09375 72.039062 53.300781 C 72.039062 55.542969 71.167969 57.546875 69.695312 59.019531 C 68.238281 60.472656 66.21875 61.382812 63.976562 61.382812 C 61.734375 61.382812 59.730469 60.472656 58.257812 59.019531 C 56.800781 57.5625 55.894531 55.542969 55.894531 53.300781 C 55.894531 51.09375 56.800781 49.054688 58.257812 47.582031 C 59.730469 46.144531 61.734375 45.238281 63.976562 45.238281 Z M 67.195312 50.066406 C 66.355469 49.261719 65.207031 48.765625 63.976562 48.765625 C 62.707031 48.765625 61.578125 49.242188 60.757812 50.066406 C 59.953125 50.902344 59.421875 52.050781 59.421875 53.285156 C 59.421875 54.550781 59.933594 55.679688 60.757812 56.503906 C 61.578125 57.324219 62.707031 57.839844 63.976562 57.839844 C 65.207031 57.839844 66.339844 57.324219 67.195312 56.503906 C 68 55.699219 68.53125 54.550781 68.53125 53.285156 C 68.53125 52.050781 68 50.902344 67.195312 50.066406 Z M 43.429688 51.109375 C 45.640625 51.109375 47.644531 52.015625 49.113281 53.472656 C 50.570312 54.925781 51.476562 56.949219 51.476562 59.191406 C 51.476562 61.398438 50.570312 63.402344 49.113281 64.875 C 47.660156 66.328125 45.640625 67.238281 43.429688 67.238281 C 41.1875 67.238281 39.183594 66.328125 37.714844 64.875 C 36.257812 63.417969 35.351562 61.398438 35.351562 59.191406 C 35.351562 56.949219 36.257812 54.945312 37.714844 53.472656 C 39.183594 52.015625 41.1875 51.109375 43.429688 51.109375 Z M 46.617188 55.972656 C 45.8125 55.167969 44.664062 54.636719 43.429688 54.636719 C 42.164062 54.636719 41.035156 55.148438 40.210938 55.972656 C 39.375 56.777344 38.878906 57.921875 38.878906 59.191406 C 38.878906 60.421875 39.355469 61.554688 40.210938 62.375 C 41.015625 63.214844 42.164062 63.710938 43.429688 63.710938 C 44.664062 63.710938 45.792969 63.230469 46.617188 62.375 C 47.453125 61.570312 47.949219 60.421875 47.949219 59.191406 C 47.949219 57.921875 47.453125 56.792969 46.617188 55.972656 Z M 54.046875 74.015625 C 54.695312 74.496094 55.277344 75.027344 55.828125 75.574219 C 59.011719 78.757812 60.980469 83.175781 60.980469 88.003906 L 60.980469 95.144531 C 60.980469 95.949219 60.464844 96.632812 59.710938 96.839844 C 57.144531 97.917969 54.492188 98.6875 51.820312 99.234375 C 49.0625 99.78125 46.238281 100.074219 43.414062 100.074219 C 31.566406 100.074219 20.882812 95.261719 13.128906 87.542969 C 5.421875 79.804688 0.613281 69.121094 0.613281 57.273438 C 0.613281 45.460938 5.421875 34.777344 13.144531 27.019531 C 20.902344 19.300781 31.582031 14.488281 43.429688 14.488281 C 55.246094 14.488281 65.925781 19.300781 73.683594 27.019531 C 81.402344 34.777344 86.214844 45.460938 86.214844 57.273438 C 86.214844 63.96875 84.65625 70.457031 81.765625 76.292969 C 81.695312 76.398438 81.660156 76.480469 81.609375 76.585938 C 81.472656 76.808594 81.386719 77.046875 81.25 77.269531 C 78.066406 83.347656 73.390625 88.636719 67.554688 92.625 C 66.75 93.175781 65.671875 92.953125 65.121094 92.164062 C 64.574219 91.359375 64.761719 90.246094 65.585938 89.699219 C 70.945312 86.035156 75.222656 81.191406 78.152344 75.609375 C 77.054688 73.433594 75.359375 71.550781 73.304688 70.214844 C 71.097656 68.796875 68.460938 67.9375 65.652344 67.9375 C 63.015625 67.9375 60.550781 68.65625 58.480469 69.925781 C 56.699219 70.96875 55.210938 72.375 54.046875 74.015625 Z M 54.046875 74.015625 " fill-opacity="1" fill-rule="nonzero"/></g></svg>